<svg width="290" height="28" viewBox="0 0 290 28" fill="none" xmlns="http://www.w3.org/2000/svg">
<path d="M1.00554 23.0001H11.3162V22.4561L8.00662 22.0401C7.05193 21.9121 6.35182 21.1761 6.35182 20.1841V4.85612L19.4629 23.0001H20.895V3.35212C20.895 2.39212 21.5633 1.59212 22.5179 1.46412L24.9365 1.14412V0.600117H14.6258V1.14412L17.9354 1.56012C18.8901 1.68812 19.5902 2.42412 19.5902 3.41612V17.6881L10.0751 4.24812C7.4338 0.536118 4.82431 0.600117 0.36908 0.600117V1.14412C2.31029 1.43212 4.21967 2.16812 5.04707 3.64012V20.2481C5.04707 21.2081 4.37879 22.0081 3.4241 22.1361L1.00554 22.4561V23.0001Z" fill="white"/>
<path d="M42.8758 23.5121C49.7496 23.5121 54.7458 18.7761 54.7458 11.8001C54.7458 4.82412 49.7496 0.120117 42.8758 0.120117C36.002 0.120117 30.9739 4.82412 30.9739 11.8001C30.9739 18.7761 36.002 23.5121 42.8758 23.5121ZM42.9076 22.3921C37.1794 22.3921 34.8563 17.3041 34.8563 11.0641C34.8563 5.24012 37.3067 1.24012 42.8439 1.24012C48.4448 1.24012 50.8315 6.23212 50.8315 12.2801C50.8315 18.2961 48.6676 22.3921 42.9076 22.3921Z" fill="white"/>
<path d="M71.7023 12.1841H71.9568C75.2346 21.3041 81.0901 25.4001 84.3042 27.4161C79.7853 21.2081 77.6532 17.1121 75.6165 11.8961C79.4671 11.1921 81.4719 9.36812 81.4719 6.23212C81.4719 2.20012 77.9714 0.600117 71.384 0.600117H61.4234V1.14412L63.4601 1.40012C64.4148 1.52812 65.1149 2.26412 65.1149 3.25612V20.3441C65.1149 21.3361 64.4148 22.0721 63.4601 22.2001L61.4234 22.4561V23.0001H72.4978V22.4561L70.4612 22.2001C69.5065 22.0721 68.8064 21.3361 68.8064 20.3441V12.1841H71.7023ZM68.8064 1.72012H72.1796C76.3802 1.72012 78.0987 3.22412 78.0987 6.39212C78.0987 9.56012 76.1575 11.0641 71.6704 11.0641H68.8064V1.72012Z" fill="white"/>
<path d="M90.3501 23.0001H101.234C109.126 23.0001 114.186 18.9681 114.186 11.8641C114.186 4.40812 109.126 0.600117 101.234 0.600117H90.3501V1.14412L92.3868 1.40012C93.3414 1.52812 94.0416 2.26412 94.0416 3.25612V20.3441C94.0416 21.3361 93.3414 22.0721 92.3868 22.2001L90.3501 22.4561V23.0001ZM99.3878 21.8801C98.4331 21.8801 97.733 21.3361 97.733 20.3441V1.72012H100.724C105.434 1.72012 110.335 3.73612 110.335 11.8641C110.335 19.3841 106.007 21.8801 100.724 21.8801H99.3878Z" fill="white"/>
<path d="M121.172 23.0001H132.247V22.4561L130.21 22.2001C129.256 22.0721 128.555 21.3361 128.555 20.3441V3.25612C128.555 2.26412 129.256 1.52812 130.21 1.40012L132.247 1.14412V0.600117H121.172V1.14412L123.209 1.40012C124.164 1.52812 124.864 2.26412 124.864 3.25612V20.3441C124.864 21.3361 124.164 22.0721 123.209 22.2001L121.172 22.4561V23.0001Z" fill="white"/>
<path d="M151.139 23.4801C154.83 23.4801 158.776 22.0721 161.354 19.6401V17.7201C158.872 20.0561 155.467 21.2401 152.094 21.2401C147.225 21.2401 143.247 17.8161 143.247 11.8001C143.247 5.49612 145.984 1.24012 151.139 1.24012C155.785 1.24012 158.235 5.17612 157.663 12.0881H158.522L160.431 3.54412C158.617 1.46412 153.685 0.120117 151.139 0.120117C143.947 0.120117 139.237 4.82412 139.237 11.8001C139.237 18.8081 144.011 23.4801 151.139 23.4801Z" fill="white"/>
<path d="M192.655 12.1841H192.909C196.187 21.3041 202.043 25.4001 205.257 27.4161C200.738 21.2081 198.606 17.1121 196.569 11.8961C200.42 11.1921 202.425 9.36812 202.425 6.23212C202.425 2.20012 198.924 0.600117 192.337 0.600117H182.376V1.14412L184.413 1.40012C185.367 1.52812 186.067 2.26412 186.067 3.25612V20.3441C186.067 21.3361 185.367 22.0721 184.413 22.2001L182.376 22.4561V23.0001H193.45V22.4561L191.414 22.2001C190.459 22.0721 189.759 21.3361 189.759 20.3441V12.1841H192.655ZM189.759 1.72012H193.132C197.333 1.72012 199.051 3.22412 199.051 6.39212C199.051 9.56012 197.11 11.0641 192.623 11.0641H189.759V1.72012Z" fill="white"/>
<path d="M222.863 23.5121C229.736 23.5121 234.733 18.7761 234.733 11.8001C234.733 4.82412 229.736 0.120117 222.863 0.120117C215.989 0.120117 210.961 4.82412 210.961 11.8001C210.961 18.7761 215.989 23.5121 222.863 23.5121ZM222.894 22.3921C217.166 22.3921 214.843 17.3041 214.843 11.0641C214.843 5.24012 217.294 1.24012 222.831 1.24012C228.432 1.24012 230.818 6.23212 230.818 12.2801C230.818 18.2961 228.654 22.3921 222.894 22.3921Z" fill="white"/>
<path d="M251.993 23.4801C256.766 23.4801 260.14 21.0481 260.14 17.5281C260.14 8.69612 247.188 9.59212 247.188 5.17612C247.188 2.90412 249.256 1.24012 252.661 1.24012C256.257 1.24012 257.944 3.64012 258.294 8.92012H259.153L259.471 1.65612C257.594 0.824118 255.207 0.120117 252.661 0.120117C247.697 0.120117 244.61 2.36012 244.61 5.49612C244.61 14.1041 257.594 12.8881 257.594 18.0081C257.594 20.5681 255.239 22.3601 252.311 22.3601C248.524 22.3601 246.615 19.7361 245.915 13.8161H245.055L244.419 21.4001C246.615 22.6161 248.652 23.4801 251.993 23.4801Z" fill="white"/>
<path d="M268.099 23.0001H288.721L289.675 15.4481H289.134C287.193 20.5041 285.507 21.8801 282.674 21.8801H277.137C276.182 21.8801 275.482 21.3361 275.482 20.3441V12.1841H282.833C283.693 12.1841 284.552 12.7921 284.616 13.6241L284.966 17.3681H285.507V6.20012H284.966L284.616 9.62412C284.52 10.4881 283.693 11.0641 282.833 11.0641H275.482V1.72012H282.038C284.393 1.72012 286.78 2.84012 288.052 8.18412H288.593L287.957 0.600117H268.099V1.14412L270.136 1.40012C271.091 1.52812 271.791 2.26412 271.791 3.25612V20.3441C271.791 21.3361 271.091 22.0721 270.136 22.2001L268.099 22.4561V23.0001Z" fill="white"/>
</svg>
